# xmcd
#
# Track frame offsets:
#   150
#   13335
#   29967
#   45170
#   60857
#   74005
#   90590
#   100020
#   114695
#   128315
#   147167
#   157585
#   169997
#   185037
#   200205
#
# Disc length: 2907 seconds
#
# Revision: 0
# Processed by: cddbd v1.5.1PL0 Copyright (c) Steve Scherf et al.
# Submitted via: uFREEDB ActiveX Control 1.5
#
DISCID=cd0b590f
DTITLE=Super Bandas - Alegria dos bailes
DYEAR=1900
DGENRE=Country
TTITLE0=Bonde do alemão
TTITLE1=Garota do baile
TTITLE2=Rebola, rebola
TTITLE3=Minha rainha
TTITLE4=Você é tudo pra mim
TTITLE5=Garota linda
TTITLE6=Viuva negra
TTITLE7=O bicho vai pegar
TTITLE8=Amor de cama
TTITLE9=Doida muito doida
TTITLE10=De carona com a saudade
TTITLE11=Coisas de amor
TTITLE12=Tarde de verão
TTITLE13=Sai dessa garota
TTITLE14=Cocotinha popozuda
EXTD=
EXTT0=
EXTT1=
EXTT2=
EXTT3=
EXTT4=
EXTT5=
EXTT6=
EXTT7=
EXTT8=
EXTT9=
EXTT10=
EXTT11=
EXTT12=
EXTT13=
EXTT14=
PLAYORDER=
